<svg xmlns="http://www.w3.org/2000/svg" version="1.1" xmlns:xlink="http://www.w3.org/1999/xlink" xmlns:svgjs="http://svgjs.dev/svgjs" width="1500" height="1500" viewBox="0 0 1500 1500"><rect width="1500" height="1500" fill="#ffffff"></rect><g transform="matrix(0.6666666666666666,0,0,0.6666666666666666,250.0000000000001,187.66666666666674)"><svg viewBox="0 0 320 360" data-background-color="#ffffff" preserveAspectRatio="xMidYMid meet" height="1687" width="1500" xmlns="http://www.w3.org/2000/svg" xmlns:xlink="http://www.w3.org/1999/xlink"><g id="tight-bounds" transform="matrix(1,0,0,1,0,0)"><svg viewBox="0 0 320 360" height="360" width="320"><g><svg></svg></g><g><svg viewBox="0 0 320 360" height="360" width="320"><g><path d="M320 204.145c-0.08-8.44-5.414-15.128-5.494-23.568-0.04-8.44 5.215-18.631 5.136-27.071-2.667-8.002-9.833-12.7-12.501-20.702-2.667-8.002-0.836-19.348-3.463-27.35-5.016-6.808-13.297-9.037-18.274-15.805-5.016-6.808-6.768-18.154-11.744-24.921-6.847-4.897-15.407-4.499-22.294-9.396-6.847-4.897-12.023-15.168-18.91-20.065-8.042-2.548-16.044 0.518-24.086-2.07-8.042-2.548-16.123-10.709-24.165-13.257-8.44 0.08-15.128 5.414-23.568 5.494-8.44 0.04-18.631-5.215-27.071-5.135-8.002 2.667-12.7 9.833-20.702 12.5-8.002 2.667-19.348 0.836-27.35 3.504-6.808 5.016-9.037 13.297-15.805 18.273-6.808 5.016-18.154 6.768-24.922 11.784-4.897 6.847-4.499 15.407-9.395 22.294-4.897 6.847-15.168 12.023-20.065 18.91-2.548 8.042 0.478 16.044-2.07 24.086-2.548 8.042-10.709 16.123-13.257 24.165 0.04 8.44 5.414 15.128 5.494 23.568 0.04 8.44-5.215 18.631-5.136 27.071 2.667 8.002 9.833 12.7 12.501 20.702 2.667 8.002 0.836 19.348 3.503 27.35 5.016 6.808 13.297 9.037 18.273 15.845 5.016 6.808 6.768 18.154 11.745 24.921 6.847 4.897 15.407 4.499 22.294 9.396 6.847 4.897 12.023 15.168 18.91 20.065 8.042 2.548 16.044-0.478 24.086 2.07 8.042 2.548 16.123 10.709 24.165 13.257 8.44-0.08 15.128-5.414 23.568-5.494 8.44-0.04 18.631 5.215 27.071 5.135 8.002-2.667 12.7-9.833 20.702-12.5 8.002-2.667 19.348-0.836 27.35-3.504 6.808-5.016 9.037-13.297 15.845-18.273 6.808-5.016 18.154-6.768 24.921-11.744 4.897-6.847 4.499-15.407 9.396-22.294 4.897-6.847 15.168-12.023 20.064-18.91 2.548-8.042-0.478-16.044 2.071-24.086 2.468-8.121 10.63-16.203 13.177-24.245zM305.987 227.395c-3.623 7.126-12.501 13.456-16.164 20.582-3.623 7.126-2.03 15.088-5.653 22.215-5.653 5.653-16.044 8.918-21.737 14.57-5.653 5.653-6.569 13.735-12.261 19.388-7.126 3.623-18.034 3.503-25.161 7.166-7.126 3.623-10.51 11.028-17.636 14.651-7.922 1.234-18.233-2.229-26.156-0.996-7.922 1.234-13.416 7.246-21.299 8.48-7.922-1.234-16.641-7.763-24.563-8.997-7.922-1.274-14.969 2.747-22.891 1.473-7.126-3.623-13.456-12.54-20.582-16.163-7.126-3.623-15.088-2.03-22.255-5.654-5.653-5.653-8.918-16.044-14.571-21.736-5.653-5.653-13.735-6.609-19.387-12.262-3.623-7.126-3.503-18.034-7.166-25.161-3.623-7.126-11.028-10.51-14.651-17.636-1.234-7.922 2.229-18.233 0.995-26.156-1.274-7.922-7.246-13.416-8.479-21.298 1.274-7.922 7.763-16.641 8.997-24.564 1.234-7.922-2.747-14.969-1.473-22.891 3.623-7.126 12.54-13.456 16.163-20.582 3.623-7.126 2.03-15.088 5.653-22.254 5.653-5.653 16.044-8.918 21.737-14.571 5.653-5.653 6.609-13.735 12.262-19.388 7.126-3.623 18.034-3.503 25.16-7.166 7.126-3.623 10.51-11.028 17.637-14.651 7.922-1.234 18.233 2.229 26.155 0.996 7.922-1.234 13.416-7.246 21.299-8.48 7.922 1.234 16.641 7.763 24.564 8.997 7.922 1.274 14.969-2.747 22.891-1.473 7.126 3.623 13.456 12.54 20.582 16.163 7.126 3.623 15.088 2.03 22.254 5.654 5.653 5.653 8.918 16.044 14.571 21.736 5.653 5.653 13.735 6.609 19.388 12.262 3.623 7.126 3.503 18.034 7.166 25.161 3.623 7.126 11.028 10.51 14.65 17.636 1.274 7.922-2.229 18.233-0.995 26.156 1.234 7.922 7.246 13.416 8.48 21.298-1.234 7.922-7.763 16.641-8.997 24.564-1.234 7.922 2.747 15.009 1.473 22.931z" fill="#2e30ff" fill-rule="nonzero" stroke="none" stroke-width="1" stroke-linecap="butt" stroke-linejoin="miter" stroke-miterlimit="10" stroke-dasharray="" stroke-dashoffset="0" font-family="none" font-weight="none" font-size="none" text-anchor="none" style="mix-blend-mode: normal" data-fill-palette-color="tertiary"></path></g><g transform="matrix(1,0,0,1,48.000000000000014,144.04146826568248)"><svg viewBox="0 0 223.99999999999997 71.91706346863502" height="71.91706346863502" width="223.99999999999997"><g><svg viewBox="0 0 223.99999999999997 71.91706346863502" height="71.91706346863502" width="223.99999999999997"><g><svg viewBox="0 0 223.99999999999997 71.91706346863502" height="71.91706346863502" width="223.99999999999997"><g><svg viewBox="0 0 223.99999999999997 71.91706346863502" height="71.91706346863502" width="223.99999999999997"><g id="textblocktransform"><svg viewBox="0 0 223.99999999999997 71.91706346863502" height="71.91706346863502" width="223.99999999999997" id="textblock"><g><svg viewBox="0 0 223.99999999999997 42.439806704081775" height="42.439806704081775" width="223.99999999999997"><g transform="matrix(1,0,0,1,0,0)"><svg width="223.99999999999997" viewBox="-0.25432123456000005 -37.8 203.97523032546908 38.65" height="42.439806704081775" data-palette-color="#2e30ff"><path d="M21.75-12L10.15-12 6.9-2.5 10.75-1.5Q10.9-0.55 10.5 0.25L10.5 0.25Q9.15 0.15 7.48 0.08 5.8 0 4.4 0L4.4 0Q3 0 2.1 0.08 1.2 0.15-0.2 0.25L-0.2 0.25Q-0.35-0.7-0.1-1.5L-0.1-1.5Q1-1.65 1.95-1.9 2.9-2.15 3.75-2.5L3.75-2.5 15.6-35.95Q16-36.2 16.57-36.27 17.15-36.35 17.55-36.35L17.55-36.35 31.1-2.5 34.95-1.5Q35.1-0.55 34.7 0.25L34.7 0.25Q33.35 0.15 31.68 0.08 30 0 28.6 0L28.6 0Q27.65 0 26.3 0.05 24.95 0.1 23.63 0.15 22.3 0.2 21.35 0.25L21.35 0.25Q21.2-0.7 21.45-1.5L21.45-1.5Q22.6-1.65 23.58-1.9 24.55-2.15 25.45-2.5L25.45-2.5 21.75-12ZM15.7-29L15.6-29Q15.1-27.2 14.58-25.35 14.05-23.5 13.4-21.6L13.4-21.6 11.05-14.75 20.65-14.75 17.9-21.85Q17.05-23.9 16.53-25.6 16-27.3 15.7-29L15.7-29ZM44.2-16.85L44.2-2.5 49.05-1.5Q49.2-0.55 48.8 0.25L48.8 0.25Q47.9 0.2 46.57 0.15 45.25 0.1 43.95 0.05 42.65 0 41.7 0L41.7 0Q40.3 0 38.65 0.08 37 0.15 35.6 0.25L35.6 0.25Q35.45-0.7 35.7-1.5L35.7-1.5Q36.65-1.75 37.57-1.95 38.5-2.15 39.2-2.5L39.2-2.5 39.2-22 35.05-22.4Q34.9-23.4 35.3-24.15L35.3-24.15Q37.1-24.4 38.92-24.75 40.75-25.1 42.3-25.5L42.3-25.5Q42.8-25.45 43.12-25.33 43.45-25.2 43.95-24.95L43.95-24.95 43.95-20.4 44-20.35Q45.55-22.65 47.47-24.25 49.4-25.85 51.6-25.85L51.6-25.85Q52.45-25.85 53.27-25.73 54.1-25.6 54.9-25.1L54.9-25.1Q55-23.05 54.72-21.2 54.45-19.35 53.9-17.6L53.9-17.6Q53.55-17.55 52.8-17.57 52.05-17.6 51.65-17.8L51.65-17.8 50.95-22.8Q49.2-22.8 47.42-21.53 45.65-20.25 44.2-16.85L44.2-16.85ZM64.34 0.85L64.34 0.85Q61.35 0.85 59.3-0.73 57.25-2.3 57.25-5.5L57.25-5.5Q57.25-8 58.47-9.6 59.7-11.2 61.77-12.08 63.85-12.95 66.4-13.25 68.95-13.55 71.59-13.5L71.59-13.5 71.65-17.9Q71.7-20.7 70.59-22.23 69.5-23.75 67.25-23.75L67.25-23.75Q66-23.75 64.84-23.58 63.7-23.4 62.55-23L62.55-23 61.9-17.7Q61.5-17.5 60.8-17.48 60.1-17.45 59.7-17.5L59.7-17.5Q59.25-19.15 58.95-20.8 58.65-22.45 58.7-24L58.7-24Q61.05-25.1 63.42-25.55 65.8-26 68.59-26L68.59-26Q71.4-26 73.12-25.1 74.84-24.2 75.67-22 76.5-19.8 76.5-15.85L76.5-15.85 76.5-2.45Q77.34-2.05 78.25-1.88 79.15-1.7 80-1.45L80-1.45Q80.15-0.5 79.75 0.3L79.75 0.3Q78.95 0.45 77.82 0.55 76.7 0.65 75.55 0.65L75.55 0.65Q73.9 0.65 72.7 0.35L72.7 0.35 72-2.25 71.8-2.25Q70.55-0.95 68.7-0.05 66.84 0.85 64.34 0.85ZM66.25-1.9L66.25-1.9Q67.65-1.9 69.25-2.78 70.84-3.65 71.59-4.75L71.59-4.75 71.59-11.5Q66.45-11.5 64.34-10.28 62.25-9.05 62.25-6L62.25-6Q62.25-3.95 63.35-2.93 64.45-1.9 66.25-1.9ZM89.99-37.25L89.99-2.5 93.84-1.5Q93.99-0.55 93.59 0.25L93.59 0.25Q92.24 0.15 90.57 0.08 88.89 0 87.49 0L87.49 0Q86.09 0 84.44 0.08 82.79 0.15 81.39 0.25L81.39 0.25Q81.24-0.7 81.49-1.5L81.49-1.5Q82.44-1.75 83.37-1.95 84.29-2.15 84.99-2.5L84.99-2.5 84.99-34.3 80.84-34.7Q80.69-35.7 81.09-36.45L81.09-36.45Q82.89-36.7 84.72-37.05 86.54-37.4 88.09-37.8L88.09-37.8Q88.59-37.75 89.04-37.63 89.49-37.5 89.99-37.25L89.99-37.25ZM107.29-2.5L107.29-32.75 99.49-32.75 98.04-25.6Q97.44-25.55 96.99-25.55 96.54-25.55 96.04-25.75L96.04-25.75Q95.84-27.9 95.67-30.18 95.49-32.45 95.54-35L95.54-35 124.79-35Q124.89-32.7 124.72-30.4 124.54-28.1 124.24-25.75L124.24-25.75Q123.74-25.55 123.29-25.55 122.84-25.55 122.24-25.6L122.24-25.6 120.79-32.75 112.54-32.75 112.54-2.5 116.69-1.5Q116.84-0.55 116.44 0.25L116.44 0.25Q115.09 0.15 113.27 0.08 111.44 0 110.04 0L110.04 0Q108.64 0 106.62 0.08 104.59 0.15 103.19 0.25L103.19 0.25Q103.04-0.7 103.29-1.5L103.29-1.5Q104.44-1.65 105.39-1.9 106.34-2.15 107.29-2.5L107.29-2.5ZM132.79-13.5L132.79-12.5Q132.79-7.45 134.81-4.67 136.84-1.9 140.34-1.9L140.34-1.9Q141.89-1.9 142.94-2.08 143.99-2.25 145.01-2.75 146.04-3.25 147.34-4.15L147.34-4.15Q148.14-3.8 148.24-2.95L148.24-2.95Q146.69-1.15 144.54-0.15 142.39 0.85 140.19 0.85L140.19 0.85Q136.39 0.85 133.54-0.75 130.69-2.35 129.09-5.35 127.49-8.35 127.49-12.5L127.49-12.5Q127.49-16.75 129.16-19.73 130.84-22.7 133.66-24.28 136.49-25.85 139.94-25.85L139.94-25.85Q144.39-25.85 146.51-22.88 148.64-19.9 148.64-15.2L148.64-15.2Q148.64-14.85 148.64-14.55 148.64-14.25 148.59-13.9L148.59-13.9 147.89-13.35 132.79-13.5ZM139.89-23.7L139.89-23.7Q138.44-23.7 137.01-22.8 135.59-21.9 134.49-20.1 133.39-18.3 132.99-15.55L132.99-15.55 143.89-16.15Q143.89-20 143.06-21.85 142.24-23.7 139.89-23.7ZM169.89-17.7L169.24-23Q168.49-23.35 167.41-23.53 166.34-23.7 165.49-23.7L165.49-23.7Q162.84-23.7 161.09-22.28 159.34-20.85 158.46-18.32 157.59-15.8 157.59-12.5L157.59-12.5Q157.59-8.75 158.61-6.4 159.64-4.05 161.36-2.95 163.09-1.85 165.19-1.85L165.19-1.85Q166.84-1.85 168.61-2.48 170.39-3.1 172.09-4.2L172.09-4.2Q172.49-3.95 172.69-3.63 172.89-3.3 172.99-2.9L172.99-2.9Q171.14-0.95 168.91-0.05 166.69 0.85 164.44 0.85L164.44 0.85Q161.34 0.85 158.54-0.7 155.74-2.25 153.99-5.25 152.24-8.25 152.24-12.5L152.24-12.5Q152.24-16.9 154.01-19.88 155.79-22.85 158.79-24.38 161.79-25.9 165.34-25.9L165.34-25.9Q167.24-25.9 169.19-25.53 171.14-25.15 173.09-24.3L173.09-24.3Q173.09-20.6 172.09-17.5L172.09-17.5Q171.89-17.45 171.69-17.45 171.49-17.45 171.29-17.45L171.29-17.45Q170.94-17.45 170.59-17.5 170.24-17.55 169.89-17.7L169.89-17.7ZM183.78-37.25L183.78-22.25 184.03-22.25Q186.28-24.3 188.41-25.15 190.53-26 192.23-26L192.23-26Q196.33-26 198.21-23.85 200.08-21.7 200.08-18.2L200.08-18.2 200.08-2.5 203.68-1.5Q203.83-0.55 203.43 0.25L203.43 0.25Q202.08 0.15 200.53 0.08 198.98 0 197.58 0L197.58 0Q196.18 0 194.53 0.08 192.88 0.15 191.48 0.25L191.48 0.25Q191.33-0.7 191.58-1.5L191.58-1.5Q192.48-1.7 193.38-1.93 194.28-2.15 195.08-2.5L195.08-2.5 195.08-17.45Q195.08-19.55 194.43-20.65 193.78-21.75 192.68-22.13 191.58-22.5 190.23-22.5L190.23-22.5Q188.63-22.5 186.91-21.7 185.18-20.9 184.03-19.6L184.03-19.6 184.03-2.5 187.38-1.5Q187.53-0.55 187.13 0.25L187.13 0.25Q185.78 0.15 184.36 0.08 182.93 0 181.53 0L181.53 0Q180.13 0 178.48 0.08 176.83 0.15 175.43 0.25L175.43 0.25Q175.28-0.7 175.53-1.5L175.53-1.5Q176.48-1.75 177.41-1.95 178.33-2.15 179.03-2.5L179.03-2.5 179.03-34.3 174.88-34.7Q174.73-35.7 175.13-36.45L175.13-36.45Q178.73-37 181.88-37.8L181.88-37.8Q182.38-37.75 182.83-37.63 183.28-37.5 183.78-37.25L183.78-37.25Z" opacity="1" transform="matrix(1,0,0,1,0,0)" fill="#2e30ff" class="wordmark-text-0" data-fill-palette-color="primary" id="text-0"></path></svg></g></svg></g><g transform="matrix(1,0,0,1,0,52.458826511554584)"><svg viewBox="0 0 223.99999999999997 19.45823695708044" height="19.45823695708044" width="223.99999999999997"><g transform="matrix(1,0,0,1,0,0)"><svg width="223.99999999999997" viewBox="1 -38.9 583.6 50.7" height="19.45823695708044" data-palette-color="#2e30ff"><path d="M34.75 0L1 0 1-8.2 3.5-8.2 3.5-30.7 1-30.7 1-38.9 34.75-38.9 34.75-23.8 23.55-23.8 23.55-30.7 17.5-30.7 17.5-22.8 21.9-22.8 21.9-17.1 17.5-17.1 17.5-8.2 23.55-8.2 23.55-16.1 34.75-16.1 34.75 0ZM59.45 0L44.55 0 38.25-19.6 36.15-19.6 36.15-27.8 51.6-27.8 51.6-19.6 49.5-19.6 52.15-9.7 52.65-9.7 55.3-19.6 53.2-19.6 53.2-27.8 67.7-27.8 67.7-19.6 65.6-19.6 59.45 0ZM84 0.7Q76.9 0.7 72.9-3.03 68.9-6.75 68.9-13.9L68.9-13.9Q68.9-21.05 72.9-24.78 76.9-28.5 84-28.5L84-28.5Q91.05-28.5 94.17-24.83 97.3-21.15 97.3-15.7L97.3-15.7 97.3-12.1 81.1-12.1 81.1-11.8Q81.1-9.95 82.2-9.08 83.3-8.2 85.85-8.2L85.85-8.2Q88.9-8.2 91.65-8.65 94.4-9.1 96.45-9.8L96.45-9.8 96.45-1.8Q94.7-0.85 91.32-0.08 87.95 0.7 84 0.7L84 0.7ZM81.1-17.6L86.9-17.6 86.9-18.2Q86.9-19.9 86.17-20.65 85.45-21.4 84-21.4L84-21.4Q82.55-21.4 81.82-20.63 81.1-19.85 81.1-18.2L81.1-18.2 81.1-17.6ZM120.14-28.5Q121.14-28.5 122.04-28.3 122.94-28.1 123.54-27.8L123.54-27.8 123.54-18.25Q121.49-19.1 119.14-19.1L119.14-19.1Q115.99-19.1 114.29-17.45 112.59-15.8 112.59-12.55L112.59-12.55 112.59-8.2 117.09-8.2 117.09 0 98.89 0 98.89-8.2 101.09-8.2 101.09-19.6 98.89-19.6 98.89-27.8 112.59-27.8 112.59-24.15Q113.99-26.25 115.79-27.38 117.59-28.5 120.14-28.5L120.14-28.5ZM141.34-27.8L155.24-27.8 155.24-19.6 153.34-19.6 146.79-2.25Q144.34 4.3 141.19 7.58 138.04 10.85 132.89 10.85L132.89 10.85Q130.79 10.85 128.64 10.43 126.49 10 124.74 9.25L124.74 9.25 124.74 0.2 131.64 0.2 131.64 0.7Q131.64 1.95 132.94 1.95L132.94 1.95Q134.09 1.95 134.69 0.85L134.69 0.85 126.79-19.6 124.89-19.6 124.89-27.8 139.74-27.8 139.74-19.6 138.04-19.6 140.64-11.8 143.04-19.6 141.34-19.6 141.34-27.8ZM169.09 0.7Q163.79 0.7 161.11-1.88 158.44-4.45 158.44-10.55L158.44-10.55 158.44-19.6 156.24-19.6 156.24-27.8Q158.14-27.8 159.09-28.78 160.04-29.75 160.04-31.45L160.04-31.45 160.04-33.7 170.64-33.7 170.64-27.8 177.39-27.8 177.39-19.6 170.64-19.6 170.64-11.4Q170.64-9.75 171.36-8.97 172.09-8.2 173.54-8.2L173.54-8.2Q175.44-8.2 177.69-8.65L177.69-8.65 177.69-0.8Q176.29-0.25 173.91 0.23 171.54 0.7 169.09 0.7L169.09 0.7ZM210.29-8.2L212.49-8.2 212.49 0 196.69 0 196.69-8.2 198.79-8.2 198.79-16.4Q198.79-18.05 198.09-18.82 197.39-19.6 195.99-19.6L195.99-19.6Q192.99-19.6 192.99-16.4L192.99-16.4 192.99-8.2 195.09-8.2 195.09 0 179.29 0 179.29-8.2 181.49-8.2 181.49-30.7 179.29-30.7 179.29-38.9 192.99-38.9 192.99-23.9Q194.84-26.2 196.99-27.35 199.14-28.5 201.99-28.5L201.99-28.5Q206.14-28.5 208.21-25.9 210.29-23.3 210.29-18.75L210.29-18.75 210.29-8.2ZM226.68-30.55L216.48-30.55 216.48-38.9 226.68-38.9 226.68-30.55ZM229.98 0L214.08 0 214.08-8.2 216.28-8.2 216.28-19.6 214.08-19.6 214.08-27.8 227.78-27.8 227.78-8.2 229.98-8.2 229.98 0ZM262.38-8.2L264.58-8.2 264.58 0 248.78 0 248.78-8.2 250.88-8.2 250.88-16.4Q250.88-18.05 250.18-18.82 249.48-19.6 248.08-19.6L248.08-19.6Q245.08-19.6 245.08-16.4L245.08-16.4 245.08-8.2 247.18-8.2 247.18 0 231.38 0 231.38-8.2 233.58-8.2 233.58-19.6 231.38-19.6 231.38-27.8 245.08-27.8 245.08-23.9Q248.68-28.5 254.08-28.5L254.08-28.5Q258.23-28.5 260.31-25.9 262.38-23.3 262.38-18.75L262.38-18.75 262.38-8.2ZM280.83 11.8Q277.23 11.8 273.95 11.3 270.68 10.8 268.88 10.15L268.88 10.15 268.88 1.95Q274.18 2.9 278.38 2.9L278.38 2.9Q281.23 2.9 282.5 2.02 283.78 1.15 283.78-1.25L283.78-1.25 283.78-3.4Q282.53-1.8 280.55-0.55 278.58 0.7 276.03 0.7L276.03 0.7Q270.93 0.7 268.35-3.1 265.78-6.9 265.78-13.9L265.78-13.9Q265.78-20.9 268.35-24.7 270.93-28.5 276.03-28.5L276.03-28.5Q278.58-28.5 280.55-27.25 282.53-26 283.78-24.4L283.78-24.4 283.78-27.8 297.48-27.8 297.48-19.6 295.28-19.6 295.28-2Q295.28 5.25 291.68 8.53 288.08 11.8 280.83 11.8L280.83 11.8ZM280.88-8.2Q282.33-8.2 283.05-8.97 283.78-9.75 283.78-11.4L283.78-11.4 283.78-16.4Q283.78-18.05 283.05-18.82 282.33-19.6 280.88-19.6L280.88-19.6Q279.43-19.6 278.7-18.82 277.98-18.05 277.98-16.4L277.98-16.4 277.98-11.4Q277.98-9.75 278.7-8.97 279.43-8.2 280.88-8.2L280.88-8.2ZM326.47-30.55L316.27-30.55 316.27-38.9 326.47-38.9 326.47-30.55ZM329.77 0L313.87 0 313.87-8.2 316.07-8.2 316.07-19.6 313.87-19.6 313.87-27.8 327.57-27.8 327.57-8.2 329.77-8.2 329.77 0ZM343.32 0.7Q337.02 0.7 331.17-1.3L331.17-1.3 331.17-8.7 339.27-8.7 339.27-8.2Q339.27-5.8 342.32-5.8L342.32-5.8Q345.02-5.8 345.02-7.65L345.02-7.65Q345.02-8.65 344.25-9.15 343.47-9.65 341.52-10L341.52-10 339.02-10.45Q331.17-11.85 331.17-19.35L331.17-19.35Q331.17-23.7 334.47-26.1 337.77-28.5 343.37-28.5L343.37-28.5Q349.62-28.5 353.92-26.4L353.92-26.4 353.92-19.45 346.32-19.45 346.32-19.95Q346.32-20.95 345.65-21.48 344.97-22 343.67-22L343.67-22Q341.17-22 341.17-20.4L341.17-20.4Q341.17-19.55 341.87-19.1 342.57-18.65 344.42-18.25L344.42-18.25 347.27-17.7Q351.72-16.85 353.62-14.55 355.52-12.25 355.52-8.65L355.52-8.65Q355.52-4.1 352.35-1.7 349.17 0.7 343.32 0.7L343.32 0.7ZM371.92 11.1L371.92 2.9 374.12 2.9 374.12-19.6 371.92-19.6 371.92-27.8 385.62-27.8 385.62-24.4Q386.87-26 388.84-27.25 390.82-28.5 393.37-28.5L393.37-28.5Q398.47-28.5 401.04-24.7 403.62-20.9 403.62-13.9L403.62-13.9Q403.62-6.9 401.04-3.1 398.47 0.7 393.37 0.7L393.37 0.7Q390.82 0.7 388.84-0.55 386.87-1.8 385.62-3.4L385.62-3.4 385.62 2.9 389.07 2.9 389.07 11.1 371.92 11.1ZM388.52-8.2Q389.97-8.2 390.69-8.97 391.42-9.75 391.42-11.4L391.42-11.4 391.42-16.4Q391.42-18.05 390.69-18.82 389.97-19.6 388.52-19.6L388.52-19.6Q387.07-19.6 386.34-18.82 385.62-18.05 385.62-16.4L385.62-16.4 385.62-11.4Q385.62-9.75 386.34-8.97 387.07-8.2 388.52-8.2L388.52-8.2ZM419.91 0.7Q412.81 0.7 408.81-3.03 404.81-6.75 404.81-13.9L404.81-13.9Q404.81-21.05 408.81-24.78 412.81-28.5 419.91-28.5L419.91-28.5Q427.11-28.5 431.06-24.73 435.01-20.95 435.01-13.9L435.01-13.9Q435.01-6.75 431.01-3.03 427.01 0.7 419.91 0.7L419.91 0.7ZM419.91-8.2Q421.36-8.2 422.09-8.97 422.81-9.75 422.81-11.4L422.81-11.4 422.81-16.4Q422.81-18.05 422.09-18.82 421.36-19.6 419.91-19.6L419.91-19.6Q418.46-19.6 417.74-18.82 417.01-18.05 417.01-16.4L417.01-16.4 417.01-11.4Q417.01-9.75 417.74-8.97 418.46-8.2 419.91-8.2L419.91-8.2ZM448.76 0.7Q442.46 0.7 436.61-1.3L436.61-1.3 436.61-8.7 444.71-8.7 444.71-8.2Q444.71-5.8 447.76-5.8L447.76-5.8Q450.46-5.8 450.46-7.65L450.46-7.65Q450.46-8.65 449.69-9.15 448.91-9.65 446.96-10L446.96-10 444.46-10.45Q436.61-11.85 436.61-19.35L436.61-19.35Q436.61-23.7 439.91-26.1 443.21-28.5 448.81-28.5L448.81-28.5Q455.06-28.5 459.36-26.4L459.36-26.4 459.36-19.45 451.76-19.45 451.76-19.95Q451.76-20.95 451.09-21.48 450.41-22 449.11-22L449.11-22Q446.61-22 446.61-20.4L446.61-20.4Q446.61-19.55 447.31-19.1 448.01-18.65 449.86-18.25L449.86-18.25 452.71-17.7Q457.16-16.85 459.06-14.55 460.96-12.25 460.96-8.65L460.96-8.65Q460.96-4.1 457.79-1.7 454.61 0.7 448.76 0.7L448.76 0.7ZM474.71 0.7Q468.41 0.7 462.56-1.3L462.56-1.3 462.56-8.7 470.66-8.7 470.66-8.2Q470.66-5.8 473.71-5.8L473.71-5.8Q476.41-5.8 476.41-7.65L476.41-7.65Q476.41-8.65 475.63-9.15 474.86-9.65 472.91-10L472.91-10 470.41-10.45Q462.56-11.85 462.56-19.35L462.56-19.35Q462.56-23.7 465.86-26.1 469.16-28.5 474.76-28.5L474.76-28.5Q481.01-28.5 485.31-26.4L485.31-26.4 485.31-19.45 477.71-19.45 477.71-19.95Q477.71-20.95 477.03-21.48 476.36-22 475.06-22L475.06-22Q472.56-22 472.56-20.4L472.56-20.4Q472.56-19.55 473.26-19.1 473.96-18.65 475.81-18.25L475.81-18.25 478.66-17.7Q483.11-16.85 485.01-14.55 486.91-12.25 486.91-8.65L486.91-8.65Q486.91-4.1 483.73-1.7 480.56 0.7 474.71 0.7L474.71 0.7ZM501.11-30.55L490.91-30.55 490.91-38.9 501.11-38.9 501.11-30.55ZM504.41 0L488.5 0 488.5-8.2 490.71-8.2 490.71-19.6 488.5-19.6 488.5-27.8 502.21-27.8 502.21-8.2 504.41-8.2 504.41 0ZM527.25 0.7Q524.7 0.7 522.73-0.55 520.75-1.8 519.5-3.4L519.5-3.4 519.5 0 505.8 0 505.8-8.2 508-8.2 508-30.7 505.8-30.7 505.8-38.9 519.5-38.9 519.5-24.4Q520.75-26 522.73-27.25 524.7-28.5 527.25-28.5L527.25-28.5Q532.35-28.5 534.93-24.7 537.5-20.9 537.5-13.9L537.5-13.9Q537.5-6.9 534.93-3.1 532.35 0.7 527.25 0.7L527.25 0.7ZM522.4-8.2Q523.85-8.2 524.58-8.97 525.3-9.75 525.3-11.4L525.3-11.4 525.3-16.4Q525.3-18.05 524.58-18.82 523.85-19.6 522.4-19.6L522.4-19.6Q520.95-19.6 520.23-18.82 519.5-18.05 519.5-16.4L519.5-16.4 519.5-11.4Q519.5-9.75 520.23-8.97 520.95-8.2 522.4-8.2L522.4-8.2ZM554.8 0.05L538.9 0.05 538.9-8.2 541.1-8.2 541.1-30.7 538.9-30.7 538.9-38.9 552.6-38.9 552.6-8.2 554.8-8.2 554.8 0.05ZM571.3 0.7Q564.2 0.7 560.2-3.03 556.2-6.75 556.2-13.9L556.2-13.9Q556.2-21.05 560.2-24.78 564.2-28.5 571.3-28.5L571.3-28.5Q578.35-28.5 581.47-24.83 584.6-21.15 584.6-15.7L584.6-15.7 584.6-12.1 568.4-12.1 568.4-11.8Q568.4-9.95 569.5-9.08 570.6-8.2 573.15-8.2L573.15-8.2Q576.2-8.2 578.95-8.65 581.7-9.1 583.75-9.8L583.75-9.8 583.75-1.8Q582-0.85 578.62-0.08 575.25 0.7 571.3 0.7L571.3 0.7ZM568.4-17.6L574.2-17.6 574.2-18.2Q574.2-19.9 573.47-20.65 572.75-21.4 571.3-21.4L571.3-21.4Q569.85-21.4 569.12-20.63 568.4-19.85 568.4-18.2L568.4-18.2 568.4-17.6Z" opacity="1" transform="matrix(1,0,0,1,0,0)" fill="#2e30ff" class="slogan-text-1" data-fill-palette-color="secondary" id="text-1"></path></svg></g></svg></g></svg></g></svg></g></svg></g></svg></g></svg></g></svg></g><defs></defs></svg><rect width="320" height="360" fill="none" stroke="none" visibility="hidden"></rect></g></svg></g></svg>